<svg xmlns="http://www.w3.org/2000/svg" width="114.24" height="52" viewBox="0 0 114.24 52">
  <g id="logo-ar" transform="translate(-239.372 -392.338)">
    <path id="Exclusion_3-2" data-name="Exclusion 3-2" d="M301.157,441.388h0a8.3,8.3,0,0,1-4.052-1.058,7.028,7.028,0,0,1-2.855-2.869,7.608,7.608,0,0,1-.784-2.6,8.786,8.786,0,0,1,.1-2.743,8.384,8.384,0,0,1,.926-2.542,6.755,6.755,0,0,1,1.682-2,7.659,7.659,0,0,1,4.749-1.614,7.877,7.877,0,0,1,5.086,1.835,7.716,7.716,0,0,1,2.531,5.46.93.93,0,0,1-.188.746,1.3,1.3,0,0,1-1,.32H302.44v.013h-2.773c-.725,0-1.292,0-1.785.011-.685.01-1.109.156-1.3.445s-.147.759.138,1.415a4.472,4.472,0,0,0,1.76,2.035,5.472,5.472,0,0,0,2.853.776,5.8,5.8,0,0,0,2.379-.5,4.655,4.655,0,0,0,1.8-1.441,1.258,1.258,0,0,1,.945-.489,1.141,1.141,0,0,1,.826.337,1.074,1.074,0,0,1,.337.793,1.137,1.137,0,0,1-.24.7A7.136,7.136,0,0,1,301.157,441.388Zm-2.729-10.4h6.234c-.139-1.252-.614-2.191-1.427-2.818a4.234,4.234,0,0,0-2.72-.941,4.109,4.109,0,0,0-2.668.927A4.334,4.334,0,0,0,298.428,430.991Z" transform="translate(-19.681 -1.668)" fill="#1e59d5"/>
    <path id="Exclusion_3-2-2" data-name="Exclusion 3-2" d="M301.157,441.388h0a8.3,8.3,0,0,1-4.052-1.058,7.028,7.028,0,0,1-2.855-2.869,7.608,7.608,0,0,1-.784-2.6,8.786,8.786,0,0,1,.1-2.743,8.384,8.384,0,0,1,.926-2.542,6.755,6.755,0,0,1,1.682-2,7.659,7.659,0,0,1,4.749-1.614,7.877,7.877,0,0,1,5.086,1.835,7.716,7.716,0,0,1,2.531,5.46.93.93,0,0,1-.188.746,1.3,1.3,0,0,1-1,.32H302.44v.013h-2.773c-.725,0-1.292,0-1.785.011-.685.01-1.109.156-1.3.445s-.147.759.138,1.415a4.472,4.472,0,0,0,1.76,2.035,5.472,5.472,0,0,0,2.853.776,5.8,5.8,0,0,0,2.379-.5,4.655,4.655,0,0,0,1.8-1.441,1.258,1.258,0,0,1,.945-.489,1.141,1.141,0,0,1,.826.337,1.074,1.074,0,0,1,.337.793,1.137,1.137,0,0,1-.24.7A7.136,7.136,0,0,1,301.157,441.388Zm-2.729-10.4h6.234c-.139-1.252-.614-2.191-1.427-2.818a4.234,4.234,0,0,0-2.72-.941,4.109,4.109,0,0,0-2.668.927A4.334,4.334,0,0,0,298.428,430.991Z" transform="translate(-5.048 -1.668)" fill="#1e59d5"/>
    <path id="Path_1841" data-name="Path 1841" d="M269.969,441.119a1.161,1.161,0,0,1-.868-.374,1.217,1.217,0,0,1-.365-.881V427.8a1.23,1.23,0,0,1,.365-.893,1.158,1.158,0,0,1,.868-.375,1.129,1.129,0,0,1,.858.375,1.246,1.246,0,0,1,.355.893v.737a4.733,4.733,0,0,1,1.682-1.511,5.163,5.163,0,0,1,2.474-.565,6.307,6.307,0,0,1,3.026.729,5.206,5.206,0,0,1,2.1,2.143,7.467,7.467,0,0,1,.767,3.559v6.972a1.236,1.236,0,0,1-.364.893,1.155,1.155,0,0,1-.868.375,1.129,1.129,0,0,1-.858-.375,1.25,1.25,0,0,1-.354-.893v-6.854a4.683,4.683,0,0,0-1.062-3.3,3.747,3.747,0,0,0-2.919-1.166,3.991,3.991,0,0,0-3.05,1.267,4.9,4.9,0,0,0-1.167,3.463v6.589a1.234,1.234,0,0,1-.364.881A1.155,1.155,0,0,1,269.969,441.119Z" transform="translate(-14.009 -1.668)" fill="#1e59d5"/>
    <path id="Path_1842" data-name="Path 1842" d="M251.267,441.119a1.161,1.161,0,0,1-.868-.374,1.217,1.217,0,0,1-.365-.881V427.8a1.23,1.23,0,0,1,.365-.893,1.158,1.158,0,0,1,.868-.375,1.129,1.129,0,0,1,.858.375,1.246,1.246,0,0,1,.355.893v.737a4.733,4.733,0,0,1,1.682-1.511,5.163,5.163,0,0,1,2.474-.565,6.307,6.307,0,0,1,3.026.729,5.206,5.206,0,0,1,2.1,2.143,7.467,7.467,0,0,1,.767,3.559v6.972a1.236,1.236,0,0,1-.364.893,1.155,1.155,0,0,1-.868.375,1.129,1.129,0,0,1-.858-.375,1.25,1.25,0,0,1-.354-.893v-6.854a4.683,4.683,0,0,0-1.062-3.3,3.747,3.747,0,0,0-2.919-1.166,3.991,3.991,0,0,0-3.05,1.267,4.9,4.9,0,0,0-1.167,3.463v6.589a1.234,1.234,0,0,1-.364.881A1.155,1.155,0,0,1,251.267,441.119Z" transform="translate(-5.488 -1.668)" fill="#1e59d5"/>
    <rect id="Rectangle_658" data-name="Rectangle 658" width="2.447" height="15.842" rx="1.224" transform="translate(239.372 423.814)" fill="#1e59d5"/>
    <path id="Path_1843" data-name="Path 1843" d="M240.59,396.3a1.7,1.7,0,0,1-1.218-.479,1.576,1.576,0,0,1-.5-1.181,1.528,1.528,0,0,1,.5-1.152,1.729,1.729,0,0,1,1.218-.467,1.683,1.683,0,0,1,1.2.467,1.535,1.535,0,0,1,.5,1.152,1.6,1.6,0,0,1-.5,1.181A1.655,1.655,0,0,1,240.59,396.3Z" transform="translate(0 0)" fill="#1e59d5"/>
    <path id="Path_1844" data-name="Path 1844" d="M326.979,423.866a6.308,6.308,0,0,0-3.026-.729,5.163,5.163,0,0,0-2.474.565,4.733,4.733,0,0,0-1.682,1.511V417.52a1.23,1.23,0,0,0-.364-.893,1.158,1.158,0,0,0-.868-.375,1.129,1.129,0,0,0-.858.375,1.246,1.246,0,0,0-.354.893v22.344a1.236,1.236,0,0,0,.364.893,1.155,1.155,0,0,0,.868.375,1.129,1.129,0,0,0,.858-.375,1.25,1.25,0,0,0,.354-.893v-6.589a4.9,4.9,0,0,1,1.167-3.463,3.991,3.991,0,0,1,3.05-1.267,3.747,3.747,0,0,1,2.919,1.166,4.683,4.683,0,0,1,1.062,3.3v6.854a1.234,1.234,0,0,0,.364.881,1.155,1.155,0,0,0,.868.375,1.129,1.129,0,0,0,.858-.375,1.236,1.236,0,0,0,.364-.893v-6.972a7.467,7.467,0,0,0-.767-3.559A5.206,5.206,0,0,0,326.979,423.866Z" transform="translate(-36.069 2)" fill="#1e59d5"/>
    <text id="_" data-name="®" transform="translate(342.612 441.338)" fill="#1e59d5" font-size="14" font-family="Arial-BoldMT, Arial" font-weight="700"><tspan x="0" y="0">®</tspan></text>
  </g>
</svg>
